<svg xmlns="http://www.w3.org/2000/svg" width="513" height="284" style="shape-rendering:geometricPrecision;text-rendering:geometricPrecision;image-rendering:optimizeQuality;fill-rule:evenodd;clip-rule:evenodd"><path fill="#ebe6e6" d="M261.5 29.5a4.932 4.932 0 0 1 3 .5l226 190c-69.666.5-139.333.667-209 .5v-41c-85.334.167-170.667 0-256-.5a48554.39 48554.39 0 0 1 236-149.5Z" style="opacity:.958"/><path fill="#ed3236" d="M481.5 216.5a9707.393 9707.393 0 0 1-197 1v-41c-83.168.333-166.168-.001-249-1a23853.838 23853.838 0 0 0 227-143 2478282.03 2478282.03 0 0 0 219 184Z" style="opacity:1"/><path fill="#1e1f1e" d="M179.5 67.5c1.333.667 1.333.667 0 0Z" style="opacity:.004"/><path fill="#1e1f1e" d="M179.5 68.5a208.311 208.311 0 0 1-5 4.5c-.832.688-1.498.521-2-.5 1.864-2.1 4.197-3.433 7-4Z" style="opacity:.03"/><path fill="#2f2827" d="M267.5 159.5c.324-6.854-.009-13.521-1-20-1.362-8.147 1.972-13.314 10-15.5 9.276-.995 18.443-.495 27.5 1.5a55.982 55.982 0 0 1 11.5-2 112.97 112.97 0 0 0 .5 15 12.403 12.403 0 0 0 2.5 4c1-.333 1.667-1 2-2-4.896-3.777-5.229-7.944-1-12.5 7.156-3.897 14.823-5.397 23-4.5a66.182 66.182 0 0 1 21 2.5 14.51 14.51 0 0 1 4.5 4.5c.499 3.652.665 7.318.5 11 9.707 2.024 11.373 6.857 5 14.5-8.188 3.769-16.021 3.269-23.5-1.5-10.463 5.055-20.963 5.222-31.5.5-1.029-3.057-2.362-3.057-4 0-12.242 4.429-24.576 4.596-37 .5a4842.423 4842.423 0 0 1-10 4Z" style="opacity:1"/><path fill="#f5f5f5" d="M278.5 125.5c8.906-.693 17.572.307 26 3a18.725 18.725 0 0 1 8-2 25.879 25.879 0 0 1-1 10c-9.111-4.862-18.777-6.695-29-5.5-1.981.605-2.315 1.605-1 3 10.698-.356 21.031 1.311 31 5 6.256 7.535 4.589 12.869-5 16-7 .667-14 .667-21 0a25.05 25.05 0 0 1-8.5-2.5 29.82 29.82 0 0 1-8.5 3 84.902 84.902 0 0 1 .5-13c10.559 6.793 22.059 9.126 34.5 7a3.647 3.647 0 0 0-1-1.5c-11.2.579-21.867-1.421-32-6-4-4.333-4-8.667 0-13l7-3.5Z" style="opacity:1"/><path fill="#f5f5f5" d="M332.5 125.5c7.674-.166 15.341 0 23 .5 4.125.704 7.625 2.537 10.5 5.5.499 5.991.666 11.991.5 18h4v-5c1.322-.17 2.489.163 3.5 1 1.544 5.123-.29 8.289-5.5 9.5a42.479 42.479 0 0 1-13 0 10.91 10.91 0 0 1-5-4.5c-2.213 2.274-4.879 3.774-8 4.5-7.082.884-14.082.551-21-1-3.893-3.588-3.893-7.254 0-11 8.914-3.823 18.248-5.656 28-5.5.214-1.644-.12-3.144-1-4.5-3.906-1.434-7.906-1.767-12-1-1.655 1.444-2.322 3.278-2 5.5a35.698 35.698 0 0 1-13 .5c-3.977-3.183-3.643-6.183 1-9 3.35-1.486 6.684-2.653 10-3.5Z" style="opacity:1"/><path fill="#922b2b" d="M339.5 133.5c9.194.864 9.194 1.864 0 3-3.882-1.035-3.882-2.035 0-3Z" style="opacity:1"/><path fill="#2d2929" d="M339.5 142.5h10c.322 2.222-.345 4.056-2 5.5-3.572 1.405-7.239 1.738-11 1a3.943 3.943 0 0 1-1-2c.844-2.007 2.177-3.507 4-4.5Z" style="opacity:1"/><path fill="#c02e31" d="M342.5 144.5a8.43 8.43 0 0 1 4 .5c-2.283 2.19-4.949 2.857-8 2a51.22 51.22 0 0 1 4-2.5Z" style="opacity:1"/><path fill="#2f2727" d="M265.5 144.5c1.333 2.667 1.333 5.333 0 8-1.763 3.056-4.43 4.889-8 5.5-6.549 1.364-12.549.198-18-3.5-9.791 4.686-19.791 5.186-30 1.5-2.681-2.194-4.181-5.027-4.5-8.5-5.296 6.233-12.129 9.733-20.5 10.5-9 .667-18 .667-27 0-10.213-1.892-18.713-6.725-25.5-14.5-2.808-4.47-3.141-9.136-1-14 10.176-12.751 23.51-18.751 40-18 7.96-.341 15.627.992 23 4a43.059 43.059 0 0 0 9.5-5 314.44 314.44 0 0 1 1.5 25c1.167-5.833 4.667-9.333 10.5-10.5a133.615 133.615 0 0 1 31-1c10.065 1.622 14.065 7.455 12 17.5 2.846.052 5.18 1.052 7 3Z" style="opacity:1"/><path fill="#b02c2e" d="M206.5 138.5a7.47 7.47 0 0 1 3 2c-2.595 5.105-3.595 4.438-3-2Z" style="opacity:1"/><path fill="#f6f6f6" d="M222.5 125.5c9.853-.654 19.519.18 29 2.5a20.499 20.499 0 0 0 3.5 2.5l1 18c1.049 1.017 2.216 1.184 3.5.5a54.628 54.628 0 0 1 2-4.5c3.82 2.991 3.82 6.158 0 9.5a39.081 39.081 0 0 1-16 1 17.842 17.842 0 0 1-5.5-4.5 28.415 28.415 0 0 1-7.5 4.5c-7.477 1.011-14.81.511-22-1.5-3.437-7.14-1.104-11.64 7-13.5a246.56 246.56 0 0 1 22-2.5c-.263-4.828-2.93-6.828-8-6a16.08 16.08 0 0 0-7 1.5c-1.333 1.333-1.333 2.667 0 4-5.363 2.108-10.53 1.941-15.5-.5-.667-1.667-.667-3.333 0-5 4.12-3.086 8.62-5.086 13.5-6Z" style="opacity:1"/><path fill="#292727" d="M229.5 142.5h9c.285 1.788-.048 3.455-1 5-3.825 1.645-7.825 2.312-12 2-.313-3.337 1.02-5.671 4-7Z" style="opacity:1"/><path fill="#be2e30" d="M232.5 144.5a8.43 8.43 0 0 1 4 .5c-2.681 2.07-5.681 2.736-9 2a39.445 39.445 0 0 1 5-2.5Z" style="opacity:1"/><path fill="#9b2b2c" d="M228.5 133.5c2.82-.252 5.486.248 8 1.5a25.238 25.238 0 0 1-10 0c.916-.278 1.582-.778 2-1.5Z" style="opacity:1"/><path fill="#e93135" d="M168.5 123.5c10.897-1.057 20.73 1.609 29.5 8 1.778 5.556-.055 9.39-5.5 11.5-10.049 3.206-20.049 3.206-30 0-6.564-9.054-4.564-15.554 6-19.5Z" style="opacity:1"/><path fill="#b8b8b8" d="M200.5 115.5c.06-.543.393-.876 1-1l1 9c.051 3.438-.282 6.104-1 8 .321-5.526-.012-10.86-1-16Z" style="opacity:1"/><path fill="#f7f7f7" d="M200.5 115.5c.988 5.14 1.321 10.474 1 16-10.058-8.6-21.725-11.767-35-9.5-8.788 2.74-11.954 8.573-9.5 17.5 1.593 3.928 4.427 6.428 8.5 7.5 10.593 1.289 20.926.289 31-3a21.754 21.754 0 0 0 6-7.5c2.861 5.181 1.861 9.681-3 13.5-12.331 6-25.331 8-39 6-9.782-1.641-18.282-5.808-25.5-12.5-4.091-7.442-2.924-13.942 3.5-19.5 17.683-11.606 36.35-13.439 56-5.5l6-3Z" style="opacity:1"/><path fill="#92292b" d="M266.5 139.5c.991 6.479 1.324 13.146 1 20l-2-7c1.333-2.667 1.333-5.333 0-8 .951-1.419 1.284-3.085 1-5Z" style="opacity:1"/><path fill="#422222" d="M-.5 171.5c.667 0 1 .333 1 1l-1-1Z" style="opacity:.004"/><path fill="#8a2a2b" d="M.5 172.5c1.333.667 1.333.667 0 0ZM2.5 173.5c1.333.667 1.333.667 0 0Z" style="opacity:.027"/><path fill="#85292a" d="M4.5 174.5c1.333.667 1.333.667 0 0Z" style="opacity:.035"/><path fill="#85292a" d="M6.5 175.5c1.333.667 1.333.667 0 0Z" style="opacity:.031"/><path fill="#81292a" d="M8.5 176.5c1.333.667 1.333.667 0 0Z" style="opacity:.016"/><path fill="#fee6e6" d="M35.5 175.5c82.832.999 165.832 1.333 249 1v41a400.456 400.456 0 0 1-1-40c-83.003.333-166.003 0-249-1 .124-.607.457-.94 1-1Z" style="opacity:1"/><path fill="#7c2929" d="M10.5 177.5c1.333.667 1.333.667 0 0Z" style="opacity:.012"/><path fill="#7c292a" d="M1.5 178.5c1.333.667 1.333.667 0 0Z" style="opacity:.012"/><path fill="#762828" d="M12.5 178.5c1.333.667 1.333.667 0 0Z" style="opacity:.008"/><path fill="#7f292a" d="M3.5 179.5c1.333.667 1.333.667 0 0Z" style="opacity:.012"/><path fill="#682727" d="M14.5 179.5c1.333.667 1.333.667 0 0Z" style="opacity:.008"/><path fill="#762829" d="M6.5 180.5c1.333.667 1.333.667 0 0Z" style="opacity:.008"/><path fill="#5a2425" d="M17.5 181.5c-.667-1.333-.667-1.333 0 0Z" style="opacity:.004"/><path fill="#7f292a" d="M9.5 181.5c1.333.667 1.333.667 0 0Z" style="opacity:.012"/><path fill="#9d2c2d" d="M17.5 181.5c1.333.667 1.333.667 0 0Z" style="opacity:.004"/><path fill="#7c2929" d="M11.5 182.5c1.333.667 1.333.667 0 0Z" style="opacity:.012"/><path fill="#5d2526" d="M20.5 183.5c-.667-1.333-.667-1.333 0 0Z" style="opacity:.004"/><path fill="#a52d30" d="M-.5 182.5c2.319.492 4.319 1.492 6 3h-6v-3Z" style="opacity:.222"/><path fill="#592425" d="M20.5 183.5c.667 0 1 .333 1 1l-1-1Z" style="opacity:.004"/><path fill="#902b2c" d="M15.5 185.5c-.667-1.333-.667-1.333 0 0Z" style="opacity:.008"/><path fill="#502323" d="M21.5 184.5c1.333.667 1.333.667 0 0Z" style="opacity:.004"/><path fill="#9a2b2e" d="M5.5 185.5c1.333.667 1.333.667 0 0Z" style="opacity:.024"/><path fill="#8d2a2b" d="M15.5 185.5c.667 0 1 .333 1 1l-1-1Z" style="opacity:.008"/><path fill="#8b2a2b" d="M8.5 187.5c-.667-1.333-.667-1.333 0 0Z" style="opacity:.024"/><path fill="#7c2929" d="M16.5 186.5c.667 0 1 .333 1 1l-1-1Z" style="opacity:.012"/><path fill="#902b2d" d="M8.5 187.5c.992-.172 1.658.162 2 1-.992.172-1.658-.162-2-1Z" style="opacity:.02"/><path fill="#5e2526" d="M17.5 187.5c1.333.667 1.333.667 0 0Z" style="opacity:.004"/><path fill="#7d2829" d="M28.5 187.5c1.333.667 1.333.667 0 0Z" style="opacity:.012"/><path fill="#832a2b" d="M10.5 188.5c.992-.172 1.658.162 2 1-.992.172-1.658-.162-2-1Z" style="opacity:.012"/><path fill="#9d2c2d" d="M20.5 189.5c-.667-1.333-.667-1.333 0 0Z" style="opacity:.004"/><path fill="#742829" d="M12.5 189.5c.992-.172 1.658.162 2 1-.992.172-1.658-.162-2-1Z" style="opacity:.008"/><path fill="#5f2526" d="M20.5 189.5c1.333.667 1.333.667 0 0Z" style="opacity:.008"/><path fill="#9f2c2d" d="M14.5 190.5c1.333.667 1.333.667 0 0Z" style="opacity:.024"/><path fill="#732728" d="M22.5 190.5c1.333.667 1.333.667 0 0Z" style="opacity:.012"/><path fill="#912a2b" d="M16.5 191.5c1.333.667 1.333.667 0 0Z" style="opacity:.024"/><path fill="#732728" d="M24.5 191.5c1.333.667 1.333.667 0 0Z" style="opacity:.012"/><path fill="#81292a" d="M33.5 191.5c1.333.667 1.333.667 0 0Z" style="opacity:.012"/><path fill="#672526" d="M18.5 193.5c.397-1.025 1.063-1.192 2-.5a2.429 2.429 0 0 1-2 .5Z" style="opacity:.004"/><path fill="#9a2b2d" d="M21.5 193.5c.397-1.025 1.063-1.192 2-.5a2.429 2.429 0 0 1-2 .5Z" style="opacity:.024"/><path fill="#6e2727" d="M26.5 192.5c1.333.667 1.333.667 0 0Z" style="opacity:.008"/><path fill="#83292a" d="M35.5 192.5c1.333.667 1.333.667 0 0Z" style="opacity:.012"/><path fill="#682527" d="M25.5 194.5c-.667-1.333-.667-1.333 0 0Z" style="opacity:.012"/><path fill="#6d2727" d="M28.5 193.5c1.333.667 1.333.667 0 0Z" style="opacity:.008"/><path fill="#87292a" d="M37.5 193.5c1.333.667 1.333.667 0 0Z" style="opacity:.012"/><path fill="#702728" d="M25.5 194.5c.667 0 1 .333 1 1l-1-1Z" style="opacity:.016"/><path fill="#6d2727" d="M30.5 194.5c1.333.667 1.333.667 0 0Z" style="opacity:.008"/><path fill="#782828" d="M39.5 194.5c1.333.667 1.333.667 0 0Z" style="opacity:.012"/><path fill="#7f2829" d="M26.5 195.5c.667 0 1 .333 1 1l-1-1Z" style="opacity:.02"/><path fill="#7a2829" d="M32.5 195.5c1.333.667 1.333.667 0 0Z" style="opacity:.012"/><path fill="#912a2b" d="M27.5 196.5c.667 0 1 .333 1 1l-1-1Z" style="opacity:.024"/><path fill="#89292a" d="M34.5 196.5c1.333.667 1.333.667 0 0Z" style="opacity:.012"/><path fill="#a62c2f" d="M28.5 197.5c.667 0 1 .333 1 1l-1-1Z" style="opacity:.02"/><path fill="#752828" d="M29.5 198.5c.992-.172 1.658.162 2 1-.992.172-1.658-.162-2-1Z" style="opacity:.004"/><path fill="#5a2425" d="M37.5 198.5c1.333.667 1.333.667 0 0Z" style="opacity:.004"/><path fill="#502323" d="M45.5 199.5c-.667-1.333-.667-1.333 0 0Z" style="opacity:.004"/><path fill="#802829" d="M31.5 199.5c.667 0 1 .333 1 1l-1-1Z" style="opacity:.02"/><path fill="#742728" d="M39.5 199.5c1.333.667 1.333.667 0 0Z" style="opacity:.008"/><path fill="#86292a" d="M45.5 199.5c1.333.667 1.333.667 0 0Z" style="opacity:.012"/><path fill="#ad2d2f" d="M32.5 200.5c1.333.667 1.333.667 0 0Z" style="opacity:.016"/><path fill="#8d2a2b" d="M41.5 200.5c1.333.667 1.333.667 0 0Z" style="opacity:.008"/><path fill="#782828" d="M47.5 200.5c1.333.667 1.333.667 0 0Z" style="opacity:.012"/><path fill="#772728" d="M35.5 202.5c-.667-1.333-.667-1.333 0 0Z" style="opacity:.016"/><path fill="#84292a" d="M49.5 201.5c1.333.667 1.333.667 0 0Z" style="opacity:.012"/><path fill="#ab2c2f" d="M35.5 202.5c1.333.667 1.333.667 0 0Z" style="opacity:.016"/><path fill="#602526" d="M44.5 202.5c1.333.667 1.333.667 0 0Z" style="opacity:.008"/><path fill="#6a2527" d="M52.5 202.5c1.333.667 1.333.667 0 0Z" style="opacity:.008"/><path fill="#86292a" d="M38.5 204.5c-.667-1.333-.667-1.333 0 0Z" style="opacity:.02"/><path fill="#7f2829" d="M46.5 203.5c1.333.667 1.333.667 0 0Z" style="opacity:.012"/><path fill="#902a2b" d="M54.5 203.5c1.333.667 1.333.667 0 0Z" style="opacity:.008"/><path fill="#7d282a" d="M38.5 204.5c.992-.172 1.658.162 2 1-.992.172-1.658-.162-2-1Z" style="opacity:.008"/><path fill="#512323" d="M57.5 204.5c1.333.667 1.333.667 0 0Z" style="opacity:.004"/><path fill="#a32b2f" d="M40.5 205.5c1.333.667 1.333.667 0 0Z" style="opacity:.02"/><path fill="#5d2425" d="M49.5 205.5c1.333.667 1.333.667 0 0Z" style="opacity:.004"/><path fill="#87292a" d="M42.5 206.5c1.333.667 1.333.667 0 0Z" style="opacity:.024"/><path fill="#7d2829" d="M51.5 206.5c1.333.667 1.333.667 0 0Z" style="opacity:.012"/><path fill="#902a2b" d="M60.5 206.5c1.333.667 1.333.667 0 0Z" style="opacity:.008"/><path fill="#6d2727" d="M45.5 208.5c-.667-1.333-.667-1.333 0 0Z" style="opacity:.012"/><path fill="#9d2b2e" d="M54.5 208.5c-.667-1.333-.667-1.333 0 0Z" style="opacity:.004"/><path fill="#632526" d="M63.5 208.5c-.667-1.333-.667-1.333 0 0Z" style="opacity:.008"/><path fill="#732729" d="M45.5 208.5c.992-.172 1.658.162 2 1-.992.172-1.658-.162-2-1Z" style="opacity:.004"/><path fill="#5b2425" d="M54.5 208.5c1.333.667 1.333.667 0 0Z" style="opacity:.004"/><path fill="#962a2c" d="M63.5 208.5c1.333.667 1.333.667 0 0Z" style="opacity:.004"/><path fill="#9d2b2e" d="M47.5 209.5c1.333.667 1.333.667 0 0Z" style="opacity:.024"/><path fill="#7f2829" d="M56.5 209.5c1.333.667 1.333.667 0 0Z" style="opacity:.012"/><path fill="#86292a" d="M49.5 210.5c1.333.667 1.333.667 0 0Z" style="opacity:.02"/><path fill="#582425" d="M66.5 210.5c1.333.667 1.333.667 0 0Z" style="opacity:.004"/><path fill="#6e2727" d="M52.5 212.5c-.667-1.333-.667-1.333 0 0Z" style="opacity:.012"/><path fill="#602426" d="M59.5 211.5c1.333.667 1.333.667 0 0Z" style="opacity:.008"/><path fill="#792728" d="M61.5 212.5c1.333.667 1.333.667 0 0Z" style="opacity:.012"/><path fill="#6d2527" d="M65.5 212.5c1.333.667 1.333.667 0 0Z" style="opacity:.008"/><path fill="#ad2c30" d="M52.5 212.5c1.256-.039 2.256.461 3 1.5a30.485 30.485 0 0 1-11 0c2.865-.183 5.531-.683 8-1.5Z" style="opacity:.034"/><path fill="#8c2a2b" d="M42.5 214.5c1.333.667 1.333.667 0 0Z" style="opacity:.024"/><path fill="#b6b7b6" d="m272.5 214.5-22 2c-.789-.283-1.456-.783-2-1.5 7.993-.5 15.993-.666 24-.5Z" style="opacity:.665"/><path fill="#e8e8e8" d="M137.5 214.5c6.037-1.399 10.371.601 13 6-3.654 5.605-8.654 7.105-15 4.5-4.384-4.581-3.717-8.081 2-10.5Z" style="opacity:.975"/><path fill="#f8f8f8" d="M121.5 255.5c-25.172.331-50.172-.002-75-1a94.131 94.131 0 0 1 11-7c1.322-3.268 1.989-6.935 2-11-.001-3.849-.335-7.516-1-11a199.763 199.763 0 0 0-14-8.5 600.2 600.2 0 0 1 49 0l-13 8.5a121.871 121.871 0 0 0-1 22 313 313 0 0 0 25-.5l16.5-12.5c.5 6.992.666 13.992.5 21Z" style="opacity:.982"/><path fill="#a52c2d" d="M42.5 217.5c1.333.667 1.333.667 0 0Z" style="opacity:.02"/><path fill="#ffd8d9" d="M481.5 216.5c.543.06.876.393 1 1a4905.897 4905.897 0 0 1-198 0c65.835.332 131.502-.001 197-1Z" style="opacity:1"/><path fill="#642526" d="M45.5 219.5c-.667-1.333-.667-1.333 0 0Z" style="opacity:.008"/><path fill="#a12c2d" d="M45.5 219.5c1.333.667 1.333.667 0 0Z" style="opacity:.02"/><path fill="#732727" d="M48.5 221.5c-.667-1.333-.667-1.333 0 0Z" style="opacity:.016"/><path fill="#ae2d2f" d="M48.5 221.5c1.333.667 1.333.667 0 0Z" style="opacity:.016"/><path fill="#812829" d="M51.5 223.5c-.667-1.333-.667-1.333 0 0Z" style="opacity:.02"/><path fill="#732828" d="M51.5 223.5c.992-.172 1.658.162 2 1-.992.172-1.658-.162-2-1Z" style="opacity:.004"/><path fill="#922a2b" d="M53.5 224.5c1.333.667 1.333.667 0 0Z" style="opacity:.031"/><path fill="#602425" d="M56.5 226.5c-.667-1.333-.667-1.333 0 0Z" style="opacity:.055"/><path fill="#939393" d="M58.5 225.5c.665 3.484.999 7.151 1 11-.011 4.065-.678 7.732-2 11a127.743 127.743 0 0 0 1-22Z" style="opacity:.365"/><path fill="#742628" d="M56.5 226.5a45.626 45.626 0 0 1 0 19v-19Z" style="opacity:.068"/><path fill="#909090" d="m140.5 227.5-17 2c-.543-.06-.876-.393-1-1a81.883 81.883 0 0 1 18-1Z" style="opacity:.486"/><path fill="#999" d="m178.5 227.5-19 2c-.543-.06-.876-.393-1-1 6.634-.997 13.3-1.33 20-1Z" style="opacity:.537"/><path fill="#f4f4f4" d="M226.5 254.5a120.655 120.655 0 0 1-31 0 32.6 32.6 0 0 1 4.5-4 42.479 42.479 0 0 0 0-13c-2.841-2.004-6.007-2.504-9.5-1.5-3.805 4.091-4.972 8.924-3.5 14.5 1.992.828 3.492 2.161 4.5 4a120.655 120.655 0 0 1-31 0 72.484 72.484 0 0 0 8.5-6 42.479 42.479 0 0 0 0-13 145.01 145.01 0 0 0-9.5-6l19-2h7a18.453 18.453 0 0 0 .5 6c8.023-7.494 17.19-8.994 27.5-4.5l3.5 3.5 1 16a105.185 105.185 0 0 1 8.5 6Z" style="opacity:.989"/><path fill="#f2f2f2" d="M272.5 214.5h6c-.167 11.338 0 22.672.5 34 3.371 2.2 6.871 4.2 10.5 6a75.78 75.78 0 0 0 8.5-6 42.479 42.479 0 0 0 0-13 61.442 61.442 0 0 1-10.5-7.5c8.994-.5 17.994-.666 27-.5-.163 2.357.003 4.69.5 7 .717-.544 1.217-1.211 1.5-2 5.191-5.337 11.525-7.171 19-5.5 4.406.119 7.906 1.953 10.5 5.5l1 16a105.185 105.185 0 0 1 8.5 6 120.655 120.655 0 0 1-31 0c4.384-2.077 6.051-5.577 5-10.5.897-7.762-2.437-10.428-10-8-5.615 6.594-5.282 12.761 1 18.5a871.155 871.155 0 0 1-59 1 4.934 4.934 0 0 0-.5-3c-1.952 2.394-4.452 3.894-7.5 4.5-9.063 1.945-16.897-.222-23.5-6.5-4.642-10.73-1.476-18.23 9.5-22.5 8.216-3.058 15.382-1.558 21.5 4.5a25.238 25.238 0 0 0 0-10 158.408 158.408 0 0 1-10.5-6l22-2Zm-23 19c11.011.218 14.011 5.384 9 15.5-10.193 3.811-14.36.311-12.5-10.5.697-2.084 1.864-3.751 3.5-5Z" style="opacity:.99"/><path fill="#f0f0f0" d="M375.5 226.5c10.793-1.683 19.96 1.317 27.5 9 1.707 2.409 2.54 5.075 2.5 8a241.046 241.046 0 0 0-31 1c.801 2.633 2.467 4.467 5 5.5a90.455 90.455 0 0 0 19 0 17.335 17.335 0 0 0 7-3.5c1.299 2.934.632 5.434-2 7.5-9.386 3.303-19.052 4.303-29 3a38.623 38.623 0 0 1-13-5c-7.584-8.908-6.25-16.242 4-22a171.94 171.94 0 0 0 10-3.5Zm16 12c-5.771.613-11.104-.054-16-2 3.622-4.091 7.956-4.924 13-2.5a11.105 11.105 0 0 1 3 4.5Z" style="opacity:.977"/><path fill="#9b9b9b" d="m427.5 227.5-19 2c-.789-.283-1.456-.783-2-1.5 6.992-.5 13.992-.666 21-.5Z" style="opacity:.537"/><path fill="#f0f0f0" d="M140.5 227.5h10a121.862 121.862 0 0 0 1 22 38.252 38.252 0 0 1 7 5 153.663 153.663 0 0 1-35 0c8.354-3.497 11.187-9.83 8.5-19a72.484 72.484 0 0 0-8.5-6l17-2Z" style="opacity:.994"/><path fill="#5b5b5b" d="m314.5 227.5 2 5c-.283.789-.783 1.456-1.5 2a24.935 24.935 0 0 1-.5-7Z" style="opacity:.122"/><path fill="#f2f2f2" d="M427.5 227.5h6a32.462 32.462 0 0 0 .5 8c.717-.544 1.217-1.211 1.5-2 4.672-5.649 10.672-7.482 18-5.5 8.369 2.013 10.036 6.346 5 13-4.2 1.367-8.533 1.867-13 1.5.667-2.319.834-4.653.5-7-3.429-1.513-6.429-.847-9 2-2.066 3.723-2.566 7.557-1.5 11.5a72 72 0 0 1 10 5.5 171.668 171.668 0 0 1-37 0c2.639-1.656 5.305-3.322 8-5a33.225 33.225 0 0 0 .5-14 105.185 105.185 0 0 1-8.5-6l19-2Z" style="opacity:.989"/><path fill="gray" d="m433.5 227.5 2 6c-.283.789-.783 1.456-1.5 2a32.462 32.462 0 0 1-.5-8Z" style="opacity:.306"/><path fill="#752728" d="M82.5 230.5c-.667-1.333-.667-1.333 0 0Z" style="opacity:.067"/><path fill="#702827" d="M82.5 230.5c.992-.172 1.658.162 2 1-.992.172-1.658-.162-2-1Z" style="opacity:.031"/><path fill="#952a2b" d="M84.5 231.5c1.333.667 1.333.667 0 0Z" style="opacity:.059"/><path fill="#6d2527" d="M87.5 233.5c-.667-1.333-.667-1.333 0 0Z" style="opacity:.063"/><path fill="#692727" d="M87.5 233.5c.992-.172 1.658.162 2 1-.992.172-1.658-.162-2-1Z" style="opacity:.016"/><path fill="#8c292a" d="M89.5 234.5c1.333.667 1.333.667 0 0Z" style="opacity:.063"/><path fill="#602426" d="M92.5 236.5c-.667-1.333-.667-1.333 0 0Z" style="opacity:.051"/><path fill="#a52b2e" d="M92.5 236.5c1.333.667 1.333.667 0 0Z" style="opacity:.039"/><path fill="#792728" d="M94.5 237.5c1.333.667 1.333.667 0 0Z" style="opacity:.067"/><path fill="#4b2222" d="M97.5 239.5c-.667-1.333-.667-1.333 0 0Z" style="opacity:.027"/><path fill="#b1b1b1" d="M375.5 236.5c4.896 1.946 10.229 2.613 16 2-5.475.989-11.142 1.322-17 1-.237-1.291.096-2.291 1-3Z" style="opacity:.486"/><path fill="#92292b" d="M97.5 239.5c1.333.667 1.333.667 0 0Z" style="opacity:.059"/><path fill="#632426" d="M100.5 241.5c-.667-1.333-.667-1.333 0 0Z" style="opacity:.055"/><path fill="#aa2b2e" d="M100.5 241.5c1.333.667 1.333.667 0 0Z" style="opacity:.031"/><path fill="#7b2728" d="M102.5 242.5c1.333.667 1.333.667 0 0Z" style="opacity:.067"/><path fill="#4b2323" d="M104.5 243.5c1.333.667 1.333.667 0 0Z" style="opacity:.027"/><path fill="#b42c30" d="M104.5 244.5c-.667.667-.667.667 0 0Z" style="opacity:.012"/><path fill="#ad2c2f" d="M56.5 245.5c-.667.667-.667.667 0 0Z" style="opacity:.031"/><path fill="#812729" d="M103.5 245.5c-7.155 1.155-14.488 1.322-22 .5 7.326-.5 14.66-.666 22-.5Z" style="opacity:.067"/><path fill="#6a2526" d="M55.5 246.5c-.667.667-.667.667 0 0Z" style="opacity:.063"/><path fill="#9f2a2c" d="M52.5 247.5c1.333.667 1.333.667 0 0Z" style="opacity:.051"/><path fill="#5b2425" d="M52.5 248.5c-.667.667-.667.667 0 0Z" style="opacity:.051"/><path fill="#91292a" d="M49.5 249.5c1.333.667 1.333.667 0 0Z" style="opacity:.063"/><path fill="#4c2222" d="M49.5 250.5c-.667.667-.667.667 0 0Z" style="opacity:.027"/><path fill="#812829" d="M46.5 251.5c1.333.667 1.333.667 0 0Z" style="opacity:.071"/><path fill="#652826" d="M44.5 253.5c.342-.838 1.008-1.172 2-1-.342.838-1.008 1.172-2 1Z" style="opacity:.004"/><path fill="#722727" d="M44.5 253.5c-.667.667-.667.667 0 0Z" style="opacity:.067"/><path fill="#5d2425" d="M43.5 254.5c-.667.667-.667.667 0 0Z" style="opacity:.051"/><path fill="#919191" d="M46.5 254.5c24.828.998 49.828 1.331 75 1a990.967 990.967 0 0 1-77 .5c.544-.717 1.21-1.217 2-1.5ZM123.5 254.5a153.663 153.663 0 0 0 35 0h2a120.655 120.655 0 0 0 31 0c.789.283 1.456.783 2 1.5-23.674.833-47.34.666-71-.5.124-.607.457-.94 1-1ZM195.5 254.5a120.655 120.655 0 0 0 31 0c.789.283 1.456.783 2 1.5a193.256 193.256 0 0 1-34-.5c.124-.607.457-.94 1-1ZM320.5 254.5c.789.283 1.456.783 2 1.5a622.212 622.212 0 0 1-61-.5c19.84.33 39.507-.003 59-1ZM324.5 254.5a120.655 120.655 0 0 0 31 0c.789.283 1.456.783 2 1.5a193.256 193.256 0 0 1-34-.5c.124-.607.457-.94 1-1Z" style="opacity:.365"/><path fill="#8e8e8e" d="M408.5 254.5a171.668 171.668 0 0 0 37 0c.789.283 1.456.783 2 1.5a420.29 420.29 0 0 1-41 0c.544-.717 1.211-1.217 2-1.5Z" style="opacity:.365"/><path fill="#5e2425" d="M43.5 257.5c-.667-1.333-.667-1.333 0 0Z" style="opacity:.051"/><path fill="#7a2728" d="M43.5 257.5c28.172-.331 56.172.002 84 1-28.172.331-56.172-.002-84-1Z" style="opacity:.071"/><path fill="#b12c2f" d="M127.5 258.5c1.333.667 1.333.667 0 0Z" style="opacity:.024"/><path fill="#7d2828" d="M129.5 259.5c1.333.667 1.333.667 0 0Z" style="opacity:.071"/><path fill="#4a2222" d="M132.5 261.5c-.667-1.333-.667-1.333 0 0Z" style="opacity:.024"/><path fill="#90292b" d="M132.5 261.5c1.333.667 1.333.667 0 0Z" style="opacity:.063"/><path fill="#592425" d="M135.5 263.5c-.667-1.333-.667-1.333 0 0Z" style="opacity:.047"/><path fill="#a02b2c" d="M135.5 263.5c1.333.667 1.333.667 0 0Z" style="opacity:.051"/><path fill="#6c2527" d="M138.5 265.5c-.667-1.333-.667-1.333 0 0Z" style="opacity:.063"/><path fill="#b32c2f" d="M138.5 265.5c1.333.667 1.333.667 0 0Z" style="opacity:.02"/><path fill="#7d2828" d="M140.5 266.5c1.333.667 1.333.667 0 0Z" style="opacity:.071"/><path fill="#4a2222" d="M143.5 268.5c-.667-1.333-.667-1.333 0 0Z" style="opacity:.024"/><path fill="#8c292a" d="M143.5 268.5c1.333.667 1.333.667 0 0Z" style="opacity:.067"/><path fill="#532323" d="M146.5 270.5c-.667-1.333-.667-1.333 0 0Z" style="opacity:.039"/><path fill="#972a2b" d="M146.5 270.5c1.333.667 1.333.667 0 0Z" style="opacity:.059"/><path fill="#5b2425" d="M149.5 272.5c-.667-1.333-.667-1.333 0 0Z" style="opacity:.051"/><path fill="#a22b2c" d="M149.5 272.5c1.333.667 1.333.667 0 0Z" style="opacity:.047"/><path fill="#652526" d="M152.5 274.5c-.667-1.333-.667-1.333 0 0Z" style="opacity:.059"/><path fill="#ac2c2d" d="M152.5 274.5c1.333.667 1.333.667 0 0Z" style="opacity:.035"/><path fill="#6f2527" d="M155.5 276.5c-.667-1.333-.667-1.333 0 0Z" style="opacity:.067"/><path fill="#b62c2f" d="M155.5 276.5c1.333.667 1.333.667 0 0Z" style="opacity:.016"/><path fill="#7a2728" d="M157.5 277.5c1.333.667 1.333.667 0 0Z" style="opacity:.071"/><path fill="#452222" d="M172.5 278.5c-1.025-.397-1.192-1.063-.5-2 .464.594.631 1.261.5 2Z" style="opacity:.035"/><path fill="#7d2728" d="M173.5 277.5c1.333.667 1.333.667 0 0Z" style="opacity:.086"/><path fill="#422221" d="M160.5 279.5c-.667-1.333-.667-1.333 0 0Z" style="opacity:.008"/><path fill="#5b2425" d="M172.5 278.5h1v1l-1-1Z" style="opacity:.059"/><path fill="#622425" d="M176.5 279.5c-.667-1.333-.667-1.333 0 0Z" style="opacity:.067"/><path fill="#852829" d="M160.5 279.5c1.333.667 1.333.667 0 0Z" style="opacity:.071"/><path fill="#622425" d="M173.5 279.5c.667 0 1 .333 1 1l-1-1Z" style="opacity:.067"/><path fill="#ad2c2d" d="M176.5 279.5c1.333.667 1.333.667 0 0Z" style="opacity:.063"/><path fill="#4a2222" d="M163.5 281.5c-.667-1.333-.667-1.333 0 0Z" style="opacity:.024"/><path fill="#582323" d="M174.5 280.5c.667 0 1 .333 1 1l-1-1Z" style="opacity:.051"/><path fill="#672526" d="M179.5 281.5c-.667-1.333-.667-1.333 0 0Z" style="opacity:.075"/><path fill="#90292a" d="M163.5 281.5c1.333.667 1.333.667 0 0Z" style="opacity:.063"/><path fill="#982c2c" d="M175.5 281.5c.992-.172 1.658.162 2 1-.992.172-1.658-.162-2-1Z" style="opacity:.016"/><path fill="#9d2a2c" d="M179.5 281.5c.667 0 1 .333 1 1l-1-1Z" style="opacity:.078"/><path fill="#542323" d="M166.5 283.5c-.667-1.333-.667-1.333 0 0Z" style="opacity:.039"/><path fill="#90292a" d="M177.5 282.5c.667 0 1 .333 1 1l-1-1Z" style="opacity:.082"/><path fill="#c62e31" d="M180.5 282.5c.667 0 1 .333 1 1l-1-1Z" style="opacity:.016"/></svg>