<?xml version="1.0" encoding="UTF-8"?>
<!DOCTYPE svg PUBLIC "-//W3C//DTD SVG 1.1//EN" "http://www.w3.org/Graphics/SVG/1.1/DTD/svg11.dtd">
<svg xmlns="http://www.w3.org/2000/svg" version="1.1" width="513px" height="284px" style="shape-rendering:geometricPrecision; text-rendering:geometricPrecision; image-rendering:optimizeQuality; fill-rule:evenodd; clip-rule:evenodd" xmlns:xlink="http://www.w3.org/1999/xlink">
<g><path style="opacity:0.958" fill="#ebe6e6" d="M 261.5,29.5 C 262.552,29.3505 263.552,29.5172 264.5,30C 339.833,93.3333 415.167,156.667 490.5,220C 420.834,220.5 351.167,220.667 281.5,220.5C 281.5,206.833 281.5,193.167 281.5,179.5C 196.166,179.667 110.833,179.5 25.5,179C 104.073,128.909 182.74,79.0752 261.5,29.5 Z"/></g>
<g><path style="opacity:1" fill="#ed3236" d="M 481.5,216.5 C 416.002,217.499 350.335,217.832 284.5,217.5C 284.5,203.833 284.5,190.167 284.5,176.5C 201.332,176.833 118.332,176.499 35.5,175.5C 111.398,128.282 187.065,80.6151 262.5,32.5C 335.519,93.8563 408.519,155.19 481.5,216.5 Z"/></g>
<g><path style="opacity:0.004" fill="#1e1f1e" d="M 179.5,67.5 C 180.833,68.1667 180.833,68.1667 179.5,67.5 Z"/></g>
<g><path style="opacity:0.03" fill="#1e1f1e" d="M 179.5,68.5 C 177.906,69.983 176.24,71.483 174.5,73C 173.668,73.6877 173.002,73.521 172.5,72.5C 174.364,70.3998 176.697,69.0665 179.5,68.5 Z"/></g>
<g><path style="opacity:1" fill="#2f2827" d="M 267.5,159.5 C 267.824,152.646 267.491,145.979 266.5,139.5C 265.138,131.353 268.472,126.186 276.5,124C 285.776,123.005 294.943,123.505 304,125.5C 307.774,124.431 311.607,123.764 315.5,123.5C 315.334,128.511 315.501,133.511 316,138.5C 316.583,140.002 317.416,141.335 318.5,142.5C 319.5,142.167 320.167,141.5 320.5,140.5C 315.604,136.723 315.271,132.556 319.5,128C 326.656,124.103 334.323,122.603 342.5,123.5C 349.652,123.21 356.652,124.043 363.5,126C 365.333,127.167 366.833,128.667 368,130.5C 368.499,134.152 368.665,137.818 368.5,141.5C 378.207,143.524 379.873,148.357 373.5,156C 365.312,159.769 357.479,159.269 350,154.5C 339.537,159.555 329.037,159.722 318.5,155C 317.471,151.943 316.138,151.943 314.5,155C 302.258,159.429 289.924,159.596 277.5,155.5C 274.146,156.846 270.813,158.179 267.5,159.5 Z"/></g>
<g><path style="opacity:1" fill="#f5f5f5" d="M 278.5,125.5 C 287.406,124.807 296.072,125.807 304.5,128.5C 307.022,127.238 309.689,126.571 312.5,126.5C 312.82,129.898 312.487,133.232 311.5,136.5C 302.389,131.638 292.723,129.805 282.5,131C 280.519,131.605 280.185,132.605 281.5,134C 292.198,133.644 302.531,135.311 312.5,139C 318.756,146.535 317.089,151.869 307.5,155C 300.5,155.667 293.5,155.667 286.5,155C 283.511,154.67 280.678,153.836 278,152.5C 275.295,153.939 272.462,154.939 269.5,155.5C 269.334,151.154 269.501,146.821 270,142.5C 280.559,149.293 292.059,151.626 304.5,149.5C 304.291,148.914 303.957,148.414 303.5,148C 292.3,148.579 281.633,146.579 271.5,142C 267.5,137.667 267.5,133.333 271.5,129C 273.925,127.787 276.259,126.621 278.5,125.5 Z"/></g>
<g><path style="opacity:1" fill="#f5f5f5" d="M 332.5,125.5 C 340.174,125.334 347.841,125.5 355.5,126C 359.625,126.704 363.125,128.537 366,131.5C 366.499,137.491 366.666,143.491 366.5,149.5C 367.833,149.5 369.167,149.5 370.5,149.5C 370.5,147.833 370.5,146.167 370.5,144.5C 371.822,144.33 372.989,144.663 374,145.5C 375.544,150.623 373.71,153.789 368.5,155C 364.167,155.667 359.833,155.667 355.5,155C 353.36,154.027 351.693,152.527 350.5,150.5C 348.287,152.774 345.621,154.274 342.5,155C 335.418,155.884 328.418,155.551 321.5,154C 317.607,150.412 317.607,146.746 321.5,143C 330.414,139.177 339.748,137.344 349.5,137.5C 349.714,135.856 349.38,134.356 348.5,133C 344.594,131.566 340.594,131.233 336.5,132C 334.845,133.444 334.178,135.278 334.5,137.5C 330.204,138.463 325.871,138.629 321.5,138C 317.523,134.817 317.857,131.817 322.5,129C 325.85,127.514 329.184,126.347 332.5,125.5 Z"/></g>
<g><path style="opacity:1" fill="#922b2b" d="M 339.5,133.5 C 348.694,134.364 348.694,135.364 339.5,136.5C 335.618,135.465 335.618,134.465 339.5,133.5 Z"/></g>
<g><path style="opacity:1" fill="#2d2929" d="M 339.5,142.5 C 342.833,142.5 346.167,142.5 349.5,142.5C 349.822,144.722 349.155,146.556 347.5,148C 343.928,149.405 340.261,149.738 336.5,149C 335.978,148.439 335.645,147.772 335.5,147C 336.344,144.993 337.677,143.493 339.5,142.5 Z"/></g>
<g><path style="opacity:1" fill="#c02e31" d="M 342.5,144.5 C 343.873,144.343 345.207,144.51 346.5,145C 344.217,147.19 341.551,147.857 338.5,147C 339.858,146.066 341.192,145.232 342.5,144.5 Z"/></g>
<g><path style="opacity:1" fill="#2f2727" d="M 265.5,144.5 C 266.833,147.167 266.833,149.833 265.5,152.5C 263.737,155.556 261.07,157.389 257.5,158C 250.951,159.364 244.951,158.198 239.5,154.5C 229.709,159.186 219.709,159.686 209.5,156C 206.819,153.806 205.319,150.973 205,147.5C 199.704,153.733 192.871,157.233 184.5,158C 175.5,158.667 166.5,158.667 157.5,158C 147.287,156.108 138.787,151.275 132,143.5C 129.192,139.03 128.859,134.364 131,129.5C 141.176,116.749 154.51,110.749 171,111.5C 178.96,111.159 186.627,112.492 194,115.5C 197.388,114.223 200.555,112.556 203.5,110.5C 204.332,118.813 204.832,127.147 205,135.5C 206.167,129.667 209.667,126.167 215.5,125C 225.782,123.464 236.115,123.13 246.5,124C 256.565,125.622 260.565,131.455 258.5,141.5C 261.346,141.552 263.68,142.552 265.5,144.5 Z"/></g>
<g><path style="opacity:1" fill="#b02c2e" d="M 206.5,138.5 C 207.643,138.908 208.643,139.575 209.5,140.5C 206.905,145.605 205.905,144.938 206.5,138.5 Z"/></g>
<g><path style="opacity:1" fill="#f6f6f6" d="M 222.5,125.5 C 232.353,124.846 242.019,125.68 251.5,128C 252.579,128.956 253.745,129.789 255,130.5C 255.333,136.5 255.667,142.5 256,148.5C 257.049,149.517 258.216,149.684 259.5,149C 260.09,147.491 260.756,145.991 261.5,144.5C 265.32,147.491 265.32,150.658 261.5,154C 256.238,155.439 250.904,155.772 245.5,155C 243.376,153.878 241.543,152.378 240,150.5C 237.749,152.377 235.249,153.877 232.5,155C 225.023,156.011 217.69,155.511 210.5,153.5C 207.063,146.36 209.396,141.86 217.5,140C 224.801,138.837 232.134,138.003 239.5,137.5C 239.237,132.672 236.57,130.672 231.5,131.5C 229.035,131.478 226.702,131.978 224.5,133C 223.167,134.333 223.167,135.667 224.5,137C 219.137,139.108 213.97,138.941 209,136.5C 208.333,134.833 208.333,133.167 209,131.5C 213.12,128.414 217.62,126.414 222.5,125.5 Z"/></g>
<g><path style="opacity:1" fill="#292727" d="M 229.5,142.5 C 232.5,142.5 235.5,142.5 238.5,142.5C 238.785,144.288 238.452,145.955 237.5,147.5C 233.675,149.145 229.675,149.812 225.5,149.5C 225.187,146.163 226.52,143.829 229.5,142.5 Z"/></g>
<g><path style="opacity:1" fill="#be2e30" d="M 232.5,144.5 C 233.873,144.343 235.207,144.51 236.5,145C 233.819,147.07 230.819,147.736 227.5,147C 229.175,146.015 230.842,145.181 232.5,144.5 Z"/></g>
<g><path style="opacity:1" fill="#9b2b2c" d="M 228.5,133.5 C 231.32,133.248 233.986,133.748 236.5,135C 233.167,135.667 229.833,135.667 226.5,135C 227.416,134.722 228.082,134.222 228.5,133.5 Z"/></g>
<g><path style="opacity:1" fill="#e93135" d="M 168.5,123.5 C 179.397,122.443 189.23,125.109 198,131.5C 199.778,137.056 197.945,140.89 192.5,143C 182.451,146.206 172.451,146.206 162.5,143C 155.936,133.946 157.936,127.446 168.5,123.5 Z"/></g>
<g><path style="opacity:1" fill="#b8b8b8" d="M 200.5,115.5 C 200.56,114.957 200.893,114.624 201.5,114.5C 201.833,117.5 202.167,120.5 202.5,123.5C 202.551,126.938 202.218,129.604 201.5,131.5C 201.821,125.974 201.488,120.64 200.5,115.5 Z"/></g>
<g><path style="opacity:1" fill="#f7f7f7" d="M 200.5,115.5 C 201.488,120.64 201.821,125.974 201.5,131.5C 191.442,122.9 179.775,119.733 166.5,122C 157.712,124.74 154.546,130.573 157,139.5C 158.593,143.428 161.427,145.928 165.5,147C 176.093,148.289 186.426,147.289 196.5,144C 199.07,141.933 201.07,139.433 202.5,136.5C 205.361,141.681 204.361,146.181 199.5,150C 187.169,156 174.169,158 160.5,156C 150.718,154.359 142.218,150.192 135,143.5C 130.909,136.058 132.076,129.558 138.5,124C 156.183,112.394 174.85,110.561 194.5,118.5C 196.527,117.487 198.527,116.487 200.5,115.5 Z"/></g>
<g><path style="opacity:1" fill="#92292b" d="M 266.5,139.5 C 267.491,145.979 267.824,152.646 267.5,159.5C 266.833,157.167 266.167,154.833 265.5,152.5C 266.833,149.833 266.833,147.167 265.5,144.5C 266.451,143.081 266.784,141.415 266.5,139.5 Z"/></g>
<g><path style="opacity:0.004" fill="#422222" d="M -0.5,171.5 C 0.166667,171.5 0.5,171.833 0.5,172.5C 0.166667,172.167 -0.166667,171.833 -0.5,171.5 Z"/></g>
<g><path style="opacity:0.027" fill="#8a2a2b" d="M 0.5,172.5 C 1.83333,173.167 1.83333,173.167 0.5,172.5 Z"/></g>
<g><path style="opacity:0.027" fill="#8a2a2b" d="M 2.5,173.5 C 3.83333,174.167 3.83333,174.167 2.5,173.5 Z"/></g>
<g><path style="opacity:0.035" fill="#85292a" d="M 4.5,174.5 C 5.83333,175.167 5.83333,175.167 4.5,174.5 Z"/></g>
<g><path style="opacity:0.031" fill="#85292a" d="M 6.5,175.5 C 7.83333,176.167 7.83333,176.167 6.5,175.5 Z"/></g>
<g><path style="opacity:0.016" fill="#81292a" d="M 8.5,176.5 C 9.83333,177.167 9.83333,177.167 8.5,176.5 Z"/></g>
<g><path style="opacity:1" fill="#fee6e6" d="M 35.5,175.5 C 118.332,176.499 201.332,176.833 284.5,176.5C 284.5,190.167 284.5,203.833 284.5,217.5C 283.504,204.344 283.171,191.01 283.5,177.5C 200.497,177.833 117.497,177.5 34.5,176.5C 34.6236,175.893 34.9569,175.56 35.5,175.5 Z"/></g>
<g><path style="opacity:0.012" fill="#7c2929" d="M 10.5,177.5 C 11.8333,178.167 11.8333,178.167 10.5,177.5 Z"/></g>
<g><path style="opacity:0.012" fill="#7c292a" d="M 1.5,178.5 C 2.83333,179.167 2.83333,179.167 1.5,178.5 Z"/></g>
<g><path style="opacity:0.008" fill="#762828" d="M 12.5,178.5 C 13.8333,179.167 13.8333,179.167 12.5,178.5 Z"/></g>
<g><path style="opacity:0.012" fill="#7f292a" d="M 3.5,179.5 C 4.83333,180.167 4.83333,180.167 3.5,179.5 Z"/></g>
<g><path style="opacity:0.008" fill="#682727" d="M 14.5,179.5 C 15.8333,180.167 15.8333,180.167 14.5,179.5 Z"/></g>
<g><path style="opacity:0.008" fill="#762829" d="M 6.5,180.5 C 7.83333,181.167 7.83333,181.167 6.5,180.5 Z"/></g>
<g><path style="opacity:0.004" fill="#5a2425" d="M 17.5,181.5 C 16.8333,180.167 16.8333,180.167 17.5,181.5 Z"/></g>
<g><path style="opacity:0.012" fill="#7f292a" d="M 9.5,181.5 C 10.8333,182.167 10.8333,182.167 9.5,181.5 Z"/></g>
<g><path style="opacity:0.004" fill="#9d2c2d" d="M 17.5,181.5 C 18.8333,182.167 18.8333,182.167 17.5,181.5 Z"/></g>
<g><path style="opacity:0.012" fill="#7c2929" d="M 11.5,182.5 C 12.8333,183.167 12.8333,183.167 11.5,182.5 Z"/></g>
<g><path style="opacity:0.004" fill="#5d2526" d="M 20.5,183.5 C 19.8333,182.167 19.8333,182.167 20.5,183.5 Z"/></g>
<g><path style="opacity:0.222" fill="#a52d30" d="M -0.5,182.5 C 1.81853,182.992 3.81853,183.992 5.5,185.5C 3.5,185.5 1.5,185.5 -0.5,185.5C -0.5,184.5 -0.5,183.5 -0.5,182.5 Z"/></g>
<g><path style="opacity:0.004" fill="#592425" d="M 20.5,183.5 C 21.1667,183.5 21.5,183.833 21.5,184.5C 21.1667,184.167 20.8333,183.833 20.5,183.5 Z"/></g>
<g><path style="opacity:0.008" fill="#902b2c" d="M 15.5,185.5 C 14.8333,184.167 14.8333,184.167 15.5,185.5 Z"/></g>
<g><path style="opacity:0.004" fill="#502323" d="M 21.5,184.5 C 22.8333,185.167 22.8333,185.167 21.5,184.5 Z"/></g>
<g><path style="opacity:0.024" fill="#9a2b2e" d="M 5.5,185.5 C 6.83333,186.167 6.83333,186.167 5.5,185.5 Z"/></g>
<g><path style="opacity:0.008" fill="#8d2a2b" d="M 15.5,185.5 C 16.1667,185.5 16.5,185.833 16.5,186.5C 16.1667,186.167 15.8333,185.833 15.5,185.5 Z"/></g>
<g><path style="opacity:0.024" fill="#8b2a2b" d="M 8.5,187.5 C 7.83333,186.167 7.83333,186.167 8.5,187.5 Z"/></g>
<g><path style="opacity:0.012" fill="#7c2929" d="M 16.5,186.5 C 17.1667,186.5 17.5,186.833 17.5,187.5C 17.1667,187.167 16.8333,186.833 16.5,186.5 Z"/></g>
<g><path style="opacity:0.02" fill="#902b2d" d="M 8.5,187.5 C 9.49162,187.328 10.1583,187.662 10.5,188.5C 9.50838,188.672 8.84171,188.338 8.5,187.5 Z"/></g>
<g><path style="opacity:0.004" fill="#5e2526" d="M 17.5,187.5 C 18.8333,188.167 18.8333,188.167 17.5,187.5 Z"/></g>
<g><path style="opacity:0.012" fill="#7d2829" d="M 28.5,187.5 C 29.8333,188.167 29.8333,188.167 28.5,187.5 Z"/></g>
<g><path style="opacity:0.012" fill="#832a2b" d="M 10.5,188.5 C 11.4916,188.328 12.1583,188.662 12.5,189.5C 11.5084,189.672 10.8417,189.338 10.5,188.5 Z"/></g>
<g><path style="opacity:0.004" fill="#9d2c2d" d="M 20.5,189.5 C 19.8333,188.167 19.8333,188.167 20.5,189.5 Z"/></g>
<g><path style="opacity:0.008" fill="#742829" d="M 12.5,189.5 C 13.4916,189.328 14.1583,189.662 14.5,190.5C 13.5084,190.672 12.8417,190.338 12.5,189.5 Z"/></g>
<g><path style="opacity:0.008" fill="#5f2526" d="M 20.5,189.5 C 21.8333,190.167 21.8333,190.167 20.5,189.5 Z"/></g>
<g><path style="opacity:0.024" fill="#9f2c2d" d="M 14.5,190.5 C 15.8333,191.167 15.8333,191.167 14.5,190.5 Z"/></g>
<g><path style="opacity:0.012" fill="#732728" d="M 22.5,190.5 C 23.8333,191.167 23.8333,191.167 22.5,190.5 Z"/></g>
<g><path style="opacity:0.024" fill="#912a2b" d="M 16.5,191.5 C 17.8333,192.167 17.8333,192.167 16.5,191.5 Z"/></g>
<g><path style="opacity:0.012" fill="#732728" d="M 24.5,191.5 C 25.8333,192.167 25.8333,192.167 24.5,191.5 Z"/></g>
<g><path style="opacity:0.012" fill="#81292a" d="M 33.5,191.5 C 34.8333,192.167 34.8333,192.167 33.5,191.5 Z"/></g>
<g><path style="opacity:0.004" fill="#672526" d="M 18.5,193.5 C 18.8966,192.475 19.5632,192.308 20.5,193C 19.9056,193.464 19.2389,193.631 18.5,193.5 Z"/></g>
<g><path style="opacity:0.024" fill="#9a2b2d" d="M 21.5,193.5 C 21.8966,192.475 22.5632,192.308 23.5,193C 22.9056,193.464 22.2389,193.631 21.5,193.5 Z"/></g>
<g><path style="opacity:0.008" fill="#6e2727" d="M 26.5,192.5 C 27.8333,193.167 27.8333,193.167 26.5,192.5 Z"/></g>
<g><path style="opacity:0.012" fill="#83292a" d="M 35.5,192.5 C 36.8333,193.167 36.8333,193.167 35.5,192.5 Z"/></g>
<g><path style="opacity:0.012" fill="#682527" d="M 25.5,194.5 C 24.8333,193.167 24.8333,193.167 25.5,194.5 Z"/></g>
<g><path style="opacity:0.008" fill="#6d2727" d="M 28.5,193.5 C 29.8333,194.167 29.8333,194.167 28.5,193.5 Z"/></g>
<g><path style="opacity:0.012" fill="#87292a" d="M 37.5,193.5 C 38.8333,194.167 38.8333,194.167 37.5,193.5 Z"/></g>
<g><path style="opacity:0.016" fill="#702728" d="M 25.5,194.5 C 26.1667,194.5 26.5,194.833 26.5,195.5C 26.1667,195.167 25.8333,194.833 25.5,194.5 Z"/></g>
<g><path style="opacity:0.008" fill="#6d2727" d="M 30.5,194.5 C 31.8333,195.167 31.8333,195.167 30.5,194.5 Z"/></g>
<g><path style="opacity:0.012" fill="#782828" d="M 39.5,194.5 C 40.8333,195.167 40.8333,195.167 39.5,194.5 Z"/></g>
<g><path style="opacity:0.02" fill="#7f2829" d="M 26.5,195.5 C 27.1667,195.5 27.5,195.833 27.5,196.5C 27.1667,196.167 26.8333,195.833 26.5,195.5 Z"/></g>
<g><path style="opacity:0.012" fill="#7a2829" d="M 32.5,195.5 C 33.8333,196.167 33.8333,196.167 32.5,195.5 Z"/></g>
<g><path style="opacity:0.024" fill="#912a2b" d="M 27.5,196.5 C 28.1667,196.5 28.5,196.833 28.5,197.5C 28.1667,197.167 27.8333,196.833 27.5,196.5 Z"/></g>
<g><path style="opacity:0.012" fill="#89292a" d="M 34.5,196.5 C 35.8333,197.167 35.8333,197.167 34.5,196.5 Z"/></g>
<g><path style="opacity:0.02" fill="#a62c2f" d="M 28.5,197.5 C 29.1667,197.5 29.5,197.833 29.5,198.5C 29.1667,198.167 28.8333,197.833 28.5,197.5 Z"/></g>
<g><path style="opacity:0.004" fill="#752828" d="M 29.5,198.5 C 30.4916,198.328 31.1583,198.662 31.5,199.5C 30.5084,199.672 29.8417,199.338 29.5,198.5 Z"/></g>
<g><path style="opacity:0.004" fill="#5a2425" d="M 37.5,198.5 C 38.8333,199.167 38.8333,199.167 37.5,198.5 Z"/></g>
<g><path style="opacity:0.004" fill="#502323" d="M 45.5,199.5 C 44.8333,198.167 44.8333,198.167 45.5,199.5 Z"/></g>
<g><path style="opacity:0.02" fill="#802829" d="M 31.5,199.5 C 32.1667,199.5 32.5,199.833 32.5,200.5C 32.1667,200.167 31.8333,199.833 31.5,199.5 Z"/></g>
<g><path style="opacity:0.008" fill="#742728" d="M 39.5,199.5 C 40.8333,200.167 40.8333,200.167 39.5,199.5 Z"/></g>
<g><path style="opacity:0.012" fill="#86292a" d="M 45.5,199.5 C 46.8333,200.167 46.8333,200.167 45.5,199.5 Z"/></g>
<g><path style="opacity:0.016" fill="#ad2d2f" d="M 32.5,200.5 C 33.8333,201.167 33.8333,201.167 32.5,200.5 Z"/></g>
<g><path style="opacity:0.008" fill="#8d2a2b" d="M 41.5,200.5 C 42.8333,201.167 42.8333,201.167 41.5,200.5 Z"/></g>
<g><path style="opacity:0.012" fill="#782828" d="M 47.5,200.5 C 48.8333,201.167 48.8333,201.167 47.5,200.5 Z"/></g>
<g><path style="opacity:0.016" fill="#772728" d="M 35.5,202.5 C 34.8333,201.167 34.8333,201.167 35.5,202.5 Z"/></g>
<g><path style="opacity:0.012" fill="#84292a" d="M 49.5,201.5 C 50.8333,202.167 50.8333,202.167 49.5,201.5 Z"/></g>
<g><path style="opacity:0.016" fill="#ab2c2f" d="M 35.5,202.5 C 36.8333,203.167 36.8333,203.167 35.5,202.5 Z"/></g>
<g><path style="opacity:0.008" fill="#602526" d="M 44.5,202.5 C 45.8333,203.167 45.8333,203.167 44.5,202.5 Z"/></g>
<g><path style="opacity:0.008" fill="#6a2527" d="M 52.5,202.5 C 53.8333,203.167 53.8333,203.167 52.5,202.5 Z"/></g>
<g><path style="opacity:0.02" fill="#86292a" d="M 38.5,204.5 C 37.8333,203.167 37.8333,203.167 38.5,204.5 Z"/></g>
<g><path style="opacity:0.012" fill="#7f2829" d="M 46.5,203.5 C 47.8333,204.167 47.8333,204.167 46.5,203.5 Z"/></g>
<g><path style="opacity:0.008" fill="#902a2b" d="M 54.5,203.5 C 55.8333,204.167 55.8333,204.167 54.5,203.5 Z"/></g>
<g><path style="opacity:0.008" fill="#7d282a" d="M 38.5,204.5 C 39.4916,204.328 40.1583,204.662 40.5,205.5C 39.5084,205.672 38.8417,205.338 38.5,204.5 Z"/></g>
<g><path style="opacity:0.004" fill="#512323" d="M 57.5,204.5 C 58.8333,205.167 58.8333,205.167 57.5,204.5 Z"/></g>
<g><path style="opacity:0.02" fill="#a32b2f" d="M 40.5,205.5 C 41.8333,206.167 41.8333,206.167 40.5,205.5 Z"/></g>
<g><path style="opacity:0.004" fill="#5d2425" d="M 49.5,205.5 C 50.8333,206.167 50.8333,206.167 49.5,205.5 Z"/></g>
<g><path style="opacity:0.024" fill="#87292a" d="M 42.5,206.5 C 43.8333,207.167 43.8333,207.167 42.5,206.5 Z"/></g>
<g><path style="opacity:0.012" fill="#7d2829" d="M 51.5,206.5 C 52.8333,207.167 52.8333,207.167 51.5,206.5 Z"/></g>
<g><path style="opacity:0.008" fill="#902a2b" d="M 60.5,206.5 C 61.8333,207.167 61.8333,207.167 60.5,206.5 Z"/></g>
<g><path style="opacity:0.012" fill="#6d2727" d="M 45.5,208.5 C 44.8333,207.167 44.8333,207.167 45.5,208.5 Z"/></g>
<g><path style="opacity:0.004" fill="#9d2b2e" d="M 54.5,208.5 C 53.8333,207.167 53.8333,207.167 54.5,208.5 Z"/></g>
<g><path style="opacity:0.008" fill="#632526" d="M 63.5,208.5 C 62.8333,207.167 62.8333,207.167 63.5,208.5 Z"/></g>
<g><path style="opacity:0.004" fill="#732729" d="M 45.5,208.5 C 46.4916,208.328 47.1583,208.662 47.5,209.5C 46.5084,209.672 45.8417,209.338 45.5,208.5 Z"/></g>
<g><path style="opacity:0.004" fill="#5b2425" d="M 54.5,208.5 C 55.8333,209.167 55.8333,209.167 54.5,208.5 Z"/></g>
<g><path style="opacity:0.004" fill="#962a2c" d="M 63.5,208.5 C 64.8333,209.167 64.8333,209.167 63.5,208.5 Z"/></g>
<g><path style="opacity:0.024" fill="#9d2b2e" d="M 47.5,209.5 C 48.8333,210.167 48.8333,210.167 47.5,209.5 Z"/></g>
<g><path style="opacity:0.012" fill="#7f2829" d="M 56.5,209.5 C 57.8333,210.167 57.8333,210.167 56.5,209.5 Z"/></g>
<g><path style="opacity:0.02" fill="#86292a" d="M 49.5,210.5 C 50.8333,211.167 50.8333,211.167 49.5,210.5 Z"/></g>
<g><path style="opacity:0.004" fill="#582425" d="M 66.5,210.5 C 67.8333,211.167 67.8333,211.167 66.5,210.5 Z"/></g>
<g><path style="opacity:0.012" fill="#6e2727" d="M 52.5,212.5 C 51.8333,211.167 51.8333,211.167 52.5,212.5 Z"/></g>
<g><path style="opacity:0.008" fill="#602426" d="M 59.5,211.5 C 60.8333,212.167 60.8333,212.167 59.5,211.5 Z"/></g>
<g><path style="opacity:0.012" fill="#792728" d="M 61.5,212.5 C 62.8333,213.167 62.8333,213.167 61.5,212.5 Z"/></g>
<g><path style="opacity:0.008" fill="#6d2527" d="M 65.5,212.5 C 66.8333,213.167 66.8333,213.167 65.5,212.5 Z"/></g>
<g><path style="opacity:0.034" fill="#ad2c30" d="M 52.5,212.5 C 53.7562,212.461 54.7562,212.961 55.5,214C 51.8333,214.667 48.1667,214.667 44.5,214C 47.3647,213.817 50.0314,213.317 52.5,212.5 Z"/></g>
<g><path style="opacity:0.024" fill="#8c2a2b" d="M 42.5,214.5 C 43.8333,215.167 43.8333,215.167 42.5,214.5 Z"/></g>
<g><path style="opacity:0.665" fill="#b6b7b6" d="M 272.5,214.5 C 265.167,215.167 257.833,215.833 250.5,216.5C 249.711,216.217 249.044,215.717 248.5,215C 256.493,214.5 264.493,214.334 272.5,214.5 Z"/></g>
<g><path style="opacity:0.975" fill="#e8e8e8" d="M 137.5,214.5 C 143.537,213.101 147.871,215.101 150.5,220.5C 146.846,226.105 141.846,227.605 135.5,225C 131.116,220.419 131.783,216.919 137.5,214.5 Z"/></g>
<g><path style="opacity:0.982" fill="#f8f8f8" d="M 121.5,255.5 C 96.3278,255.831 71.3278,255.498 46.5,254.5C 49.9974,251.917 53.6641,249.584 57.5,247.5C 58.8222,244.232 59.4888,240.565 59.5,236.5C 59.4987,232.651 59.1654,228.984 58.5,225.5C 53.9823,222.495 49.3156,219.662 44.5,217C 60.8333,216.333 77.1667,216.333 93.5,217C 89.1667,219.833 84.8333,222.667 80.5,225.5C 79.5027,232.803 79.1694,240.137 79.5,247.5C 87.84,247.666 96.1733,247.5 104.5,247C 110,242.833 115.5,238.667 121,234.5C 121.5,241.492 121.666,248.492 121.5,255.5 Z"/></g>
<g><path style="opacity:0.02" fill="#a52c2d" d="M 42.5,217.5 C 43.8333,218.167 43.8333,218.167 42.5,217.5 Z"/></g>
<g><path style="opacity:1" fill="#ffd8d9" d="M 481.5,216.5 C 482.043,216.56 482.376,216.893 482.5,217.5C 416.335,218.832 350.335,218.832 284.5,217.5C 350.335,217.832 416.002,217.499 481.5,216.5 Z"/></g>
<g><path style="opacity:0.008" fill="#642526" d="M 45.5,219.5 C 44.8333,218.167 44.8333,218.167 45.5,219.5 Z"/></g>
<g><path style="opacity:0.02" fill="#a12c2d" d="M 45.5,219.5 C 46.8333,220.167 46.8333,220.167 45.5,219.5 Z"/></g>
<g><path style="opacity:0.016" fill="#732727" d="M 48.5,221.5 C 47.8333,220.167 47.8333,220.167 48.5,221.5 Z"/></g>
<g><path style="opacity:0.016" fill="#ae2d2f" d="M 48.5,221.5 C 49.8333,222.167 49.8333,222.167 48.5,221.5 Z"/></g>
<g><path style="opacity:0.02" fill="#812829" d="M 51.5,223.5 C 50.8333,222.167 50.8333,222.167 51.5,223.5 Z"/></g>
<g><path style="opacity:0.004" fill="#732828" d="M 51.5,223.5 C 52.4916,223.328 53.1583,223.662 53.5,224.5C 52.5084,224.672 51.8417,224.338 51.5,223.5 Z"/></g>
<g><path style="opacity:0.031" fill="#922a2b" d="M 53.5,224.5 C 54.8333,225.167 54.8333,225.167 53.5,224.5 Z"/></g>
<g><path style="opacity:0.055" fill="#602425" d="M 56.5,226.5 C 55.8333,225.167 55.8333,225.167 56.5,226.5 Z"/></g>
<g><path style="opacity:0.365" fill="#939393" d="M 58.5,225.5 C 59.1654,228.984 59.4987,232.651 59.5,236.5C 59.4888,240.565 58.8222,244.232 57.5,247.5C 58.464,240.254 58.7973,232.92 58.5,225.5 Z"/></g>
<g><path style="opacity:0.068" fill="#742628" d="M 56.5,226.5 C 57.8333,232.833 57.8333,239.167 56.5,245.5C 56.5,239.167 56.5,232.833 56.5,226.5 Z"/></g>
<g><path style="opacity:0.486" fill="#909090" d="M 140.5,227.5 C 134.833,228.167 129.167,228.833 123.5,229.5C 122.957,229.44 122.624,229.107 122.5,228.5C 128.463,227.504 134.463,227.171 140.5,227.5 Z"/></g>
<g><path style="opacity:0.537" fill="#999999" d="M 178.5,227.5 C 172.167,228.167 165.833,228.833 159.5,229.5C 158.957,229.44 158.624,229.107 158.5,228.5C 165.134,227.503 171.8,227.17 178.5,227.5 Z"/></g>
<g><path style="opacity:0.989" fill="#f4f4f4" d="M 226.5,254.5 C 216.167,255.833 205.833,255.833 195.5,254.5C 196.833,253.067 198.333,251.733 200,250.5C 200.667,246.167 200.667,241.833 200,237.5C 197.159,235.496 193.993,234.996 190.5,236C 186.695,240.091 185.528,244.924 187,250.5C 188.992,251.328 190.492,252.661 191.5,254.5C 181.167,255.833 170.833,255.833 160.5,254.5C 163.454,252.72 166.287,250.72 169,248.5C 169.667,244.167 169.667,239.833 169,235.5C 165.89,233.364 162.723,231.364 159.5,229.5C 165.833,228.833 172.167,228.167 178.5,227.5C 180.833,227.5 183.167,227.5 185.5,227.5C 185.338,229.527 185.505,231.527 186,233.5C 194.023,226.006 203.19,224.506 213.5,229C 214.667,230.167 215.833,231.333 217,232.5C 217.333,237.833 217.667,243.167 218,248.5C 220.988,250.399 223.821,252.399 226.5,254.5 Z"/></g>
<g><path style="opacity:0.99" fill="#f2f2f2" d="M 272.5,214.5 C 274.5,214.5 276.5,214.5 278.5,214.5C 278.333,225.838 278.5,237.172 279,248.5C 282.371,250.7 285.871,252.7 289.5,254.5C 292.472,252.694 295.305,250.694 298,248.5C 298.667,244.167 298.667,239.833 298,235.5C 294.236,233.368 290.736,230.868 287.5,228C 296.494,227.5 305.494,227.334 314.5,227.5C 314.337,229.857 314.503,232.19 315,234.5C 315.717,233.956 316.217,233.289 316.5,232.5C 321.691,227.163 328.025,225.329 335.5,227C 339.906,227.119 343.406,228.953 346,232.5C 346.333,237.833 346.667,243.167 347,248.5C 349.988,250.399 352.821,252.399 355.5,254.5C 345.167,255.833 334.833,255.833 324.5,254.5C 328.884,252.423 330.551,248.923 329.5,244C 330.397,236.238 327.063,233.572 319.5,236C 313.885,242.594 314.218,248.761 320.5,254.5C 301.007,255.497 281.34,255.83 261.5,255.5C 261.649,254.448 261.483,253.448 261,252.5C 259.048,254.894 256.548,256.394 253.5,257C 244.437,258.945 236.603,256.778 230,250.5C 225.358,239.77 228.524,232.27 239.5,228C 247.716,224.942 254.882,226.442 261,232.5C 261.667,229.167 261.667,225.833 261,222.5C 257.391,220.615 253.891,218.615 250.5,216.5C 257.833,215.833 265.167,215.167 272.5,214.5 Z M 249.5,233.5 C 260.511,233.718 263.511,238.884 258.5,249C 248.307,252.811 244.14,249.311 246,238.5C 246.697,236.416 247.864,234.749 249.5,233.5 Z"/></g>
<g><path style="opacity:0.977" fill="#f0f0f0" d="M 375.5,226.5 C 386.293,224.817 395.46,227.817 403,235.5C 404.707,237.909 405.54,240.575 405.5,243.5C 395.145,243.168 384.812,243.501 374.5,244.5C 375.301,247.133 376.967,248.967 379.5,250C 385.833,250.667 392.167,250.667 398.5,250C 401.112,249.361 403.446,248.194 405.5,246.5C 406.799,249.434 406.132,251.934 403.5,254C 394.114,257.303 384.448,258.303 374.5,257C 369.864,256.121 365.531,254.455 361.5,252C 353.916,243.092 355.25,235.758 365.5,230C 368.98,228.897 372.313,227.731 375.5,226.5 Z M 391.5,238.5 C 385.729,239.113 380.396,238.446 375.5,236.5C 379.122,232.409 383.456,231.576 388.5,234C 389.883,235.271 390.883,236.771 391.5,238.5 Z"/></g>
<g><path style="opacity:0.537" fill="#9b9b9b" d="M 427.5,227.5 C 421.167,228.167 414.833,228.833 408.5,229.5C 407.711,229.217 407.044,228.717 406.5,228C 413.492,227.5 420.492,227.334 427.5,227.5 Z"/></g>
<g><path style="opacity:0.994" fill="#f0f0f0" d="M 140.5,227.5 C 143.833,227.5 147.167,227.5 150.5,227.5C 150.169,234.863 150.503,242.197 151.5,249.5C 154.077,250.943 156.41,252.61 158.5,254.5C 146.833,255.833 135.167,255.833 123.5,254.5C 131.854,251.003 134.687,244.67 132,235.5C 129.287,233.28 126.454,231.28 123.5,229.5C 129.167,228.833 134.833,228.167 140.5,227.5 Z"/></g>
<g><path style="opacity:0.122" fill="#5b5b5b" d="M 314.5,227.5 C 315.167,229.167 315.833,230.833 316.5,232.5C 316.217,233.289 315.717,233.956 315,234.5C 314.503,232.19 314.337,229.857 314.5,227.5 Z"/></g>
<g><path style="opacity:0.989" fill="#f2f2f2" d="M 427.5,227.5 C 429.5,227.5 431.5,227.5 433.5,227.5C 433.336,230.187 433.503,232.854 434,235.5C 434.717,234.956 435.217,234.289 435.5,233.5C 440.172,227.851 446.172,226.018 453.5,228C 461.869,230.013 463.536,234.346 458.5,241C 454.3,242.367 449.967,242.867 445.5,242.5C 446.167,240.181 446.334,237.847 446,235.5C 442.571,233.987 439.571,234.653 437,237.5C 434.934,241.223 434.434,245.057 435.5,249C 439.021,250.592 442.354,252.425 445.5,254.5C 433.167,255.833 420.833,255.833 408.5,254.5C 411.139,252.844 413.805,251.178 416.5,249.5C 417.662,244.869 417.828,240.202 417,235.5C 414.012,233.601 411.179,231.601 408.5,229.5C 414.833,228.833 421.167,228.167 427.5,227.5 Z"/></g>
<g><path style="opacity:0.306" fill="#808080" d="M 433.5,227.5 C 434.167,229.5 434.833,231.5 435.5,233.5C 435.217,234.289 434.717,234.956 434,235.5C 433.503,232.854 433.336,230.187 433.5,227.5 Z"/></g>
<g><path style="opacity:0.067" fill="#752728" d="M 82.5,230.5 C 81.8333,229.167 81.8333,229.167 82.5,230.5 Z"/></g>
<g><path style="opacity:0.031" fill="#702827" d="M 82.5,230.5 C 83.4916,230.328 84.1583,230.662 84.5,231.5C 83.5084,231.672 82.8417,231.338 82.5,230.5 Z"/></g>
<g><path style="opacity:0.059" fill="#952a2b" d="M 84.5,231.5 C 85.8333,232.167 85.8333,232.167 84.5,231.5 Z"/></g>
<g><path style="opacity:0.063" fill="#6d2527" d="M 87.5,233.5 C 86.8333,232.167 86.8333,232.167 87.5,233.5 Z"/></g>
<g><path style="opacity:0.016" fill="#692727" d="M 87.5,233.5 C 88.4916,233.328 89.1583,233.662 89.5,234.5C 88.5084,234.672 87.8417,234.338 87.5,233.5 Z"/></g>
<g><path style="opacity:0.063" fill="#8c292a" d="M 89.5,234.5 C 90.8333,235.167 90.8333,235.167 89.5,234.5 Z"/></g>
<g><path style="opacity:0.051" fill="#602426" d="M 92.5,236.5 C 91.8333,235.167 91.8333,235.167 92.5,236.5 Z"/></g>
<g><path style="opacity:0.039" fill="#a52b2e" d="M 92.5,236.5 C 93.8333,237.167 93.8333,237.167 92.5,236.5 Z"/></g>
<g><path style="opacity:0.067" fill="#792728" d="M 94.5,237.5 C 95.8333,238.167 95.8333,238.167 94.5,237.5 Z"/></g>
<g><path style="opacity:0.027" fill="#4b2222" d="M 97.5,239.5 C 96.8333,238.167 96.8333,238.167 97.5,239.5 Z"/></g>
<g><path style="opacity:0.486" fill="#b1b1b1" d="M 375.5,236.5 C 380.396,238.446 385.729,239.113 391.5,238.5C 386.025,239.489 380.358,239.822 374.5,239.5C 374.263,238.209 374.596,237.209 375.5,236.5 Z"/></g>
<g><path style="opacity:0.059" fill="#92292b" d="M 97.5,239.5 C 98.8333,240.167 98.8333,240.167 97.5,239.5 Z"/></g>
<g><path style="opacity:0.055" fill="#632426" d="M 100.5,241.5 C 99.8333,240.167 99.8333,240.167 100.5,241.5 Z"/></g>
<g><path style="opacity:0.031" fill="#aa2b2e" d="M 100.5,241.5 C 101.833,242.167 101.833,242.167 100.5,241.5 Z"/></g>
<g><path style="opacity:0.067" fill="#7b2728" d="M 102.5,242.5 C 103.833,243.167 103.833,243.167 102.5,242.5 Z"/></g>
<g><path style="opacity:0.027" fill="#4b2323" d="M 104.5,243.5 C 105.833,244.167 105.833,244.167 104.5,243.5 Z"/></g>
<g><path style="opacity:0.012" fill="#b42c30" d="M 104.5,244.5 C 103.833,245.167 103.833,245.167 104.5,244.5 Z"/></g>
<g><path style="opacity:0.031" fill="#ad2c2f" d="M 56.5,245.5 C 55.8333,246.167 55.8333,246.167 56.5,245.5 Z"/></g>
<g><path style="opacity:0.067" fill="#812729" d="M 103.5,245.5 C 96.3451,246.655 89.0118,246.822 81.5,246C 88.8258,245.5 96.1591,245.334 103.5,245.5 Z"/></g>
<g><path style="opacity:0.063" fill="#6a2526" d="M 55.5,246.5 C 54.8333,247.167 54.8333,247.167 55.5,246.5 Z"/></g>
<g><path style="opacity:0.051" fill="#9f2a2c" d="M 52.5,247.5 C 53.8333,248.167 53.8333,248.167 52.5,247.5 Z"/></g>
<g><path style="opacity:0.051" fill="#5b2425" d="M 52.5,248.5 C 51.8333,249.167 51.8333,249.167 52.5,248.5 Z"/></g>
<g><path style="opacity:0.063" fill="#91292a" d="M 49.5,249.5 C 50.8333,250.167 50.8333,250.167 49.5,249.5 Z"/></g>
<g><path style="opacity:0.027" fill="#4c2222" d="M 49.5,250.5 C 48.8333,251.167 48.8333,251.167 49.5,250.5 Z"/></g>
<g><path style="opacity:0.071" fill="#812829" d="M 46.5,251.5 C 47.8333,252.167 47.8333,252.167 46.5,251.5 Z"/></g>
<g><path style="opacity:0.004" fill="#652826" d="M 44.5,253.5 C 44.8417,252.662 45.5084,252.328 46.5,252.5C 46.1583,253.338 45.4916,253.672 44.5,253.5 Z"/></g>
<g><path style="opacity:0.067" fill="#722727" d="M 44.5,253.5 C 43.8333,254.167 43.8333,254.167 44.5,253.5 Z"/></g>
<g><path style="opacity:0.051" fill="#5d2425" d="M 43.5,254.5 C 42.8333,255.167 42.8333,255.167 43.5,254.5 Z"/></g>
<g><path style="opacity:0.365" fill="#919191" d="M 46.5,254.5 C 71.3278,255.498 96.3278,255.831 121.5,255.5C 96.0033,256.663 70.3366,256.83 44.5,256C 45.0442,255.283 45.7109,254.783 46.5,254.5 Z"/></g>
<g><path style="opacity:0.365" fill="#919191" d="M 123.5,254.5 C 135.167,255.833 146.833,255.833 158.5,254.5C 159.167,254.5 159.833,254.5 160.5,254.5C 170.833,255.833 181.167,255.833 191.5,254.5C 192.289,254.783 192.956,255.283 193.5,256C 169.826,256.833 146.16,256.666 122.5,255.5C 122.624,254.893 122.957,254.56 123.5,254.5 Z"/></g>
<g><path style="opacity:0.365" fill="#919191" d="M 195.5,254.5 C 205.833,255.833 216.167,255.833 226.5,254.5C 227.289,254.783 227.956,255.283 228.5,256C 217.152,256.832 205.819,256.666 194.5,255.5C 194.624,254.893 194.957,254.56 195.5,254.5 Z"/></g>
<g><path style="opacity:0.365" fill="#919191" d="M 320.5,254.5 C 321.289,254.783 321.956,255.283 322.5,256C 301.996,256.829 281.663,256.663 261.5,255.5C 281.34,255.83 301.007,255.497 320.5,254.5 Z"/></g>
<g><path style="opacity:0.365" fill="#919191" d="M 324.5,254.5 C 334.833,255.833 345.167,255.833 355.5,254.5C 356.289,254.783 356.956,255.283 357.5,256C 346.152,256.832 334.819,256.666 323.5,255.5C 323.624,254.893 323.957,254.56 324.5,254.5 Z"/></g>
<g><path style="opacity:0.365" fill="#8e8e8e" d="M 408.5,254.5 C 420.833,255.833 433.167,255.833 445.5,254.5C 446.289,254.783 446.956,255.283 447.5,256C 433.833,256.667 420.167,256.667 406.5,256C 407.044,255.283 407.711,254.783 408.5,254.5 Z"/></g>
<g><path style="opacity:0.051" fill="#5e2425" d="M 43.5,257.5 C 42.8333,256.167 42.8333,256.167 43.5,257.5 Z"/></g>
<g><path style="opacity:0.071" fill="#7a2728" d="M 43.5,257.5 C 71.6716,257.169 99.6716,257.502 127.5,258.5C 99.3284,258.831 71.3284,258.498 43.5,257.5 Z"/></g>
<g><path style="opacity:0.024" fill="#b12c2f" d="M 127.5,258.5 C 128.833,259.167 128.833,259.167 127.5,258.5 Z"/></g>
<g><path style="opacity:0.071" fill="#7d2828" d="M 129.5,259.5 C 130.833,260.167 130.833,260.167 129.5,259.5 Z"/></g>
<g><path style="opacity:0.024" fill="#4a2222" d="M 132.5,261.5 C 131.833,260.167 131.833,260.167 132.5,261.5 Z"/></g>
<g><path style="opacity:0.063" fill="#90292b" d="M 132.5,261.5 C 133.833,262.167 133.833,262.167 132.5,261.5 Z"/></g>
<g><path style="opacity:0.047" fill="#592425" d="M 135.5,263.5 C 134.833,262.167 134.833,262.167 135.5,263.5 Z"/></g>
<g><path style="opacity:0.051" fill="#a02b2c" d="M 135.5,263.5 C 136.833,264.167 136.833,264.167 135.5,263.5 Z"/></g>
<g><path style="opacity:0.063" fill="#6c2527" d="M 138.5,265.5 C 137.833,264.167 137.833,264.167 138.5,265.5 Z"/></g>
<g><path style="opacity:0.02" fill="#b32c2f" d="M 138.5,265.5 C 139.833,266.167 139.833,266.167 138.5,265.5 Z"/></g>
<g><path style="opacity:0.071" fill="#7d2828" d="M 140.5,266.5 C 141.833,267.167 141.833,267.167 140.5,266.5 Z"/></g>
<g><path style="opacity:0.024" fill="#4a2222" d="M 143.5,268.5 C 142.833,267.167 142.833,267.167 143.5,268.5 Z"/></g>
<g><path style="opacity:0.067" fill="#8c292a" d="M 143.5,268.5 C 144.833,269.167 144.833,269.167 143.5,268.5 Z"/></g>
<g><path style="opacity:0.039" fill="#532323" d="M 146.5,270.5 C 145.833,269.167 145.833,269.167 146.5,270.5 Z"/></g>
<g><path style="opacity:0.059" fill="#972a2b" d="M 146.5,270.5 C 147.833,271.167 147.833,271.167 146.5,270.5 Z"/></g>
<g><path style="opacity:0.051" fill="#5b2425" d="M 149.5,272.5 C 148.833,271.167 148.833,271.167 149.5,272.5 Z"/></g>
<g><path style="opacity:0.047" fill="#a22b2c" d="M 149.5,272.5 C 150.833,273.167 150.833,273.167 149.5,272.5 Z"/></g>
<g><path style="opacity:0.059" fill="#652526" d="M 152.5,274.5 C 151.833,273.167 151.833,273.167 152.5,274.5 Z"/></g>
<g><path style="opacity:0.035" fill="#ac2c2d" d="M 152.5,274.5 C 153.833,275.167 153.833,275.167 152.5,274.5 Z"/></g>
<g><path style="opacity:0.067" fill="#6f2527" d="M 155.5,276.5 C 154.833,275.167 154.833,275.167 155.5,276.5 Z"/></g>
<g><path style="opacity:0.016" fill="#b62c2f" d="M 155.5,276.5 C 156.833,277.167 156.833,277.167 155.5,276.5 Z"/></g>
<g><path style="opacity:0.071" fill="#7a2728" d="M 157.5,277.5 C 158.833,278.167 158.833,278.167 157.5,277.5 Z"/></g>
<g><path style="opacity:0.035" fill="#452222" d="M 172.5,278.5 C 171.475,278.103 171.308,277.437 172,276.5C 172.464,277.094 172.631,277.761 172.5,278.5 Z"/></g>
<g><path style="opacity:0.086" fill="#7d2728" d="M 173.5,277.5 C 174.833,278.167 174.833,278.167 173.5,277.5 Z"/></g>
<g><path style="opacity:0.008" fill="#422221" d="M 160.5,279.5 C 159.833,278.167 159.833,278.167 160.5,279.5 Z"/></g>
<g><path style="opacity:0.059" fill="#5b2425" d="M 172.5,278.5 C 172.833,278.5 173.167,278.5 173.5,278.5C 173.5,278.833 173.5,279.167 173.5,279.5C 173.167,279.167 172.833,278.833 172.5,278.5 Z"/></g>
<g><path style="opacity:0.067" fill="#622425" d="M 176.5,279.5 C 175.833,278.167 175.833,278.167 176.5,279.5 Z"/></g>
<g><path style="opacity:0.071" fill="#852829" d="M 160.5,279.5 C 161.833,280.167 161.833,280.167 160.5,279.5 Z"/></g>
<g><path style="opacity:0.067" fill="#622425" d="M 173.5,279.5 C 174.167,279.5 174.5,279.833 174.5,280.5C 174.167,280.167 173.833,279.833 173.5,279.5 Z"/></g>
<g><path style="opacity:0.063" fill="#ad2c2d" d="M 176.5,279.5 C 177.833,280.167 177.833,280.167 176.5,279.5 Z"/></g>
<g><path style="opacity:0.024" fill="#4a2222" d="M 163.5,281.5 C 162.833,280.167 162.833,280.167 163.5,281.5 Z"/></g>
<g><path style="opacity:0.051" fill="#582323" d="M 174.5,280.5 C 175.167,280.5 175.5,280.833 175.5,281.5C 175.167,281.167 174.833,280.833 174.5,280.5 Z"/></g>
<g><path style="opacity:0.075" fill="#672526" d="M 179.5,281.5 C 178.833,280.167 178.833,280.167 179.5,281.5 Z"/></g>
<g><path style="opacity:0.063" fill="#90292a" d="M 163.5,281.5 C 164.833,282.167 164.833,282.167 163.5,281.5 Z"/></g>
<g><path style="opacity:0.016" fill="#982c2c" d="M 175.5,281.5 C 176.492,281.328 177.158,281.662 177.5,282.5C 176.508,282.672 175.842,282.338 175.5,281.5 Z"/></g>
<g><path style="opacity:0.078" fill="#9d2a2c" d="M 179.5,281.5 C 180.167,281.5 180.5,281.833 180.5,282.5C 180.167,282.167 179.833,281.833 179.5,281.5 Z"/></g>
<g><path style="opacity:0.039" fill="#542323" d="M 166.5,283.5 C 165.833,282.167 165.833,282.167 166.5,283.5 Z"/></g>
<g><path style="opacity:0.082" fill="#90292a" d="M 177.5,282.5 C 178.167,282.5 178.5,282.833 178.5,283.5C 178.167,283.167 177.833,282.833 177.5,282.5 Z"/></g>
<g><path style="opacity:0.016" fill="#c62e31" d="M 180.5,282.5 C 181.167,282.5 181.5,282.833 181.5,283.5C 181.167,283.167 180.833,282.833 180.5,282.5 Z"/></g>
</svg>
